<svg width="0" height="0" class="hidden">
  <symbol fill="none" xmlns="http://www.w3.org/2000/svg" viewBox="0 0 24 24" id="subject_Init">
    <path d="M17.2088 8.83252H12.625C11.8213 8.83252 11.1663 9.48627 11.1663 10.2913V17.375C11.1663 18.1788 11.82 18.8338 12.625 18.8338H17.2088C18.0125 18.8338 18.6675 18.18 18.6675 17.375V10.2913C18.6663 9.48752 18.0125 8.83252 17.2088 8.83252ZM12.625 10.0825H17.2088C17.3238 10.0825 17.4175 10.1763 17.4175 10.2913V14.1125C16.81 13.705 15.9088 13.795 15.4463 14.3838L15.0125 14.925C14.88 15.09 14.7463 14.9863 14.7 14.94C14.1313 14.3725 13.2038 14.3713 12.6338 14.94L12.4175 15.1563V10.2913C12.4163 10.1763 12.51 10.0825 12.625 10.0825Z" fill="#1C1D2A" fill-opacity="0.64"></path>
    <path d="M19.5 3H4.5C3.12125 3 2 4.12125 2 5.5V18.8337C2 20.2125 3.12125 21.3337 4.5 21.3337H19.5C20.8787 21.3337 22 20.2125 22 18.8337V5.5C22 4.12125 20.8787 3 19.5 3ZM19.5 19.6663H4.5C4.04 19.6663 3.66625 19.2925 3.66625 18.8325V7.16625H20.3325V18.8325C20.3337 19.2925 19.96 19.6663 19.5 19.6663Z" fill="#1F213A" fill-opacity="0.32"></path>
    <path d="M8.66627 11.3325H6.16627C5.70627 11.3325 5.33252 10.9588 5.33252 10.4988C5.33252 10.0388 5.70627 9.66626 6.16627 9.66626H8.66627C9.12627 9.66626 9.50002 10.0388 9.50002 10.5C9.50002 10.9613 9.12627 11.3325 8.66627 11.3325Z" fill="#1C1D2A" fill-opacity="0.64"></path>
    <path d="M8.66627 14.6663H6.16627C5.70627 14.6663 5.33252 14.2925 5.33252 13.8325C5.33252 13.3725 5.70627 12.9988 6.16627 12.9988H8.66627C9.12627 12.9988 9.50002 13.3725 9.50002 13.8325C9.50002 14.2925 9.12627 14.6663 8.66627 14.6663Z" fill="#1C1D2A" fill-opacity="0.64"></path>
    <path d="M8.66627 18H6.16627C5.70627 18 5.33252 17.6263 5.33252 17.1663C5.33252 16.7063 5.70627 16.3325 6.16627 16.3325H8.66627C9.12627 16.3325 9.50002 16.7063 9.50002 17.1663C9.50002 17.6263 9.12627 18 8.66627 18Z" fill="#1C1D2A" fill-opacity="0.64"></path>
  </symbol>
  <symbol fill="none" xmlns="http://www.w3.org/2000/svg" viewBox="0 0 24 24" id="shop_two_Init">
    <path d="M20.5413 2H10.125C9.32126 2 8.66626 2.65375 8.66626 3.45875V5.5425C8.66626 6.34625 9.32001 7.00125 10.125 7.00125H20.5413C21.3463 7 22 6.34625 22 5.54125V3.45875C22 2.65375 21.3463 2 20.5413 2Z" fill="#1F213A" fill-opacity="0.32"></path>
    <path d="M4.5 7C5.88071 7 7 5.88071 7 4.5C7 3.11929 5.88071 2 4.5 2C3.11929 2 2 3.11929 2 4.5C2 5.88071 3.11929 7 4.5 7Z" fill="#1F213A" fill-opacity="0.32"></path>
    <path d="M20.5413 8.66626H3.45875C2.65875 8.66626 2 9.32501 2 10.125V20.5413C2 21.3413 2.65875 22 3.45875 22H20.5425C21.3412 22 22 21.3413 22 20.5413V10.125C22 9.32501 21.3412 8.66626 20.5413 8.66626ZM10.5413 19.9163H5.125C4.775 19.9163 4.5 19.6325 4.5 19.2913C4.5 18.95 4.775 18.6663 5.125 18.6663H10.5413C10.8825 18.6663 11.1663 18.95 11.1663 19.2913C11.1663 19.6338 10.8837 19.9163 10.5413 19.9163ZM10.5413 17.4163H5.125C4.775 17.4163 4.5 17.1325 4.5 16.7913C4.5 16.45 4.775 16.1663 5.125 16.1663H10.5413C10.8825 16.1663 11.1663 16.45 11.1663 16.7913C11.1663 17.1338 10.8837 17.4163 10.5413 17.4163ZM10.5413 14.9163H5.125C4.775 14.9163 4.5 14.6325 4.5 14.2913C4.5 13.95 4.775 13.6663 5.125 13.6663H10.5413C10.8825 13.6663 11.1663 13.95 11.1663 14.2913C11.1663 14.6338 10.8837 14.9163 10.5413 14.9163ZM10.5413 12.4163H5.125C4.775 12.4163 4.5 12.1325 4.5 11.7913C4.5 11.45 4.775 11.1663 5.125 11.1663H10.5413C10.8825 11.1663 11.1663 11.45 11.1663 11.7913C11.1663 12.1338 10.8837 12.4163 10.5413 12.4163ZM18.875 19.9163H13.4587C13.1175 19.9163 12.8337 19.6325 12.8337 19.2913C12.8337 18.95 13.1175 18.6663 13.4587 18.6663H18.875C19.2162 18.6663 19.5 18.95 19.5 19.2913C19.5 19.6338 19.2162 19.9163 18.875 19.9163ZM18.875 17.4163H13.4587C13.1175 17.4163 12.8337 17.1325 12.8337 16.7913C12.8337 16.45 13.1175 16.1663 13.4587 16.1663H18.875C19.2162 16.1663 19.5 16.45 19.5 16.7913C19.5 17.1338 19.2162 17.4163 18.875 17.4163ZM18.875 14.9163H13.4587C13.1175 14.9163 12.8337 14.6325 12.8337 14.2913C12.8337 13.95 13.1175 13.6663 13.4587 13.6663H18.875C19.2162 13.6663 19.5 13.95 19.5 14.2913C19.5 14.6338 19.2162 14.9163 18.875 14.9163ZM18.875 12.4163H13.4587C13.1175 12.4163 12.8337 12.1325 12.8337 11.7913C12.8337 11.45 13.1175 11.1663 13.4587 11.1663H18.875C19.2162 11.1663 19.5 11.45 19.5 11.7913C19.5 12.1338 19.2162 12.4163 18.875 12.4163Z" fill="#1C1D2A" fill-opacity="0.64"></path>
  </symbol>
  <symbol fill="none" xmlns="http://www.w3.org/2000/svg" viewBox="0 0 24 24" id="redeem_Init">
    <path d="M19.5 2H4.5C3.125 2 2 3.125 2 4.5V14.5C2 15.875 3.125 17 4.5 17H12.1912C12.0588 16.5913 12 16.175 12 15.75C12 15.6088 12.0088 15.4662 12.025 15.3337H4.5C4.04125 15.3337 3.66625 14.9587 3.66625 14.5V4.5C3.66625 4.04125 4.04125 3.66625 4.5 3.66625H19.5C19.9587 3.66625 20.3337 4.04125 20.3337 4.5V13.125C20.8587 13.8662 21.1675 14.775 21.1675 15.75C21.1675 15.9663 21.1513 16.1913 21.1088 16.4088C21.65 15.95 22 15.2662 22 14.5V4.5C22 3.125 20.875 2 19.5 2Z" fill="#1C1D2A" fill-opacity="0.64"></path>
    <path d="M15.3337 7.00002H6.16749C5.70749 7.00002 5.33374 6.62752 5.33374 6.16627C5.33374 5.70627 5.70749 5.33252 6.16749 5.33252H15.3337C15.7937 5.33252 16.1675 5.70502 16.1675 6.16627C16.1662 6.62752 15.7937 7.00002 15.3337 7.00002Z" fill="#1C1D2A" fill-opacity="0.64"></path>
    <path d="M18.6663 10.3338H6.16627C5.70627 10.3338 5.33252 9.96126 5.33252 9.50001C5.33252 9.03876 5.70627 8.66626 6.16627 8.66626H18.6663C19.1275 8.66626 19.5 9.04001 19.5 9.50001C19.5 9.96001 19.1275 10.3338 18.6663 10.3338Z" fill="#1C1D2A" fill-opacity="0.64"></path>
    <path d="M11.1663 13.6663H6.16627C5.70627 13.6663 5.33252 13.2938 5.33252 12.8325C5.33252 12.3713 5.70627 12 6.16627 12H11.1663C11.6263 12 12 12.3725 12 12.8337C12 13.295 11.6263 13.6663 11.1663 13.6663Z" fill="#1C1D2A" fill-opacity="0.64"></path>
    <path d="M19.5 15.75C19.5 14.1425 18.1913 12.8337 16.5838 12.8337C14.9763 12.8337 13.6663 14.1425 13.6663 15.75C13.6663 16.2962 13.8263 16.8025 14.0888 17.24C14.0888 17.25 14.085 17.26 14.0863 17.27L14.5025 21.4362C14.555 21.9625 15.195 22.1862 15.5663 21.8162L16.5825 20.8L17.5988 21.8162C17.9675 22.1862 18.61 21.9637 18.6625 21.4362L19.0788 17.27C19.08 17.26 19.075 17.25 19.0763 17.24C19.34 16.8025 19.5 16.2962 19.5 15.75Z" fill="#1F213A" fill-opacity="0.32"></path>
  </symbol>
  <symbol fill="none" xmlns="http://www.w3.org/2000/svg" viewBox="0 0 24 24" id="shopping_bag_Init">
    <path fill-rule="evenodd" clip-rule="evenodd" d="M13.6663 4.5V3.83375C13.6663 2.8225 14.415 2 15.3338 2C16.2525 2 17 2.8225 17 3.83375V4.5H13.6663Z" fill="#1C1D2A" fill-opacity="0.64"></path>
    <path d="M12.6825 13.6663H17.9825C18.415 13.6663 18.8287 13.4788 19.1162 13.1513C19.41 12.8175 19.545 12.37 19.4862 11.9238L18.6725 5.84125C18.575 5.07625 17.9275 4.5 17.1675 4.5H17H13.6663H13.4987C12.7387 4.5 12.0925 5.07625 11.995 5.83625L11.18 11.9263C11.1212 12.37 11.2562 12.8163 11.55 13.1513C11.8375 13.4788 12.25 13.6663 12.6825 13.6663Z" fill="#1C1D2A" fill-opacity="0.64"></path>
    <path d="M2.41 12.0013C2.1825 12.0063 2 12.1913 2 12.4188V20.125C2 20.24 2.09375 20.3338 2.20875 20.3338H4.185C4.37125 20.3338 4.535 20.21 4.58625 20.0313L6.43 13.5325C6.54875 13.1125 6.32375 12.6713 5.91375 12.5225C5.15875 12.2463 4 11.975 2.41 12.0013Z" fill="#1F213A" fill-opacity="0.32"></path>
    <path d="M20.3337 16.5837C18.6675 16.5837 15.3337 18.6937 13.6675 18.6937C12.0012 18.6937 10.125 17.4162 10.125 17.4162C10.125 17.4162 12.37 17.8325 13.6662 17.8325C14.9625 17.8325 15.3325 17.39 15.3325 16.7912C15.3325 15.3325 12.855 15.1062 11.6025 14.9162C10.3725 14.2312 9.73374 13.69 7.69624 13.5175C7.68374 13.6362 7.66499 13.7537 7.63249 13.8725L5.95874 19.7725C7.85499 20.6337 11.12 22 12.8337 22C15.3337 22 22 18.6662 22 17.8337C22 17 21.1662 16.5837 20.3337 16.5837Z" fill="#1F213A" fill-opacity="0.32"></path>
  </symbol>
  <symbol fill="none" xmlns="http://www.w3.org/2000/svg" viewBox="0 0 24 24" id="menu_book_Choose">
    <path d="M17.5 4.5C15.55 4.5 13.45 4.9 12 6C10.55 4.9 8.45 4.5 6.5 4.5C5.05 4.5 3.51 4.72 2.22 5.29C1.49 5.62 1 6.33 1 7.14V18.42C1 19.72 2.22 20.68 3.48 20.36C4.46 20.11 5.5 20 6.5 20C8.06 20 9.72 20.26 11.06 20.92C11.66 21.22 12.34 21.22 12.93 20.92C14.27 20.25 15.93 20 17.49 20C18.49 20 19.53 20.11 20.51 20.36C21.77 20.69 22.99 19.73 22.99 18.42V7.14C22.99 6.33 22.5 5.62 21.77 5.29C20.49 4.72 18.95 4.5 17.5 4.5ZM21 17.23C21 17.86 20.42 18.32 19.8 18.21C19.05 18.07 18.27 18.01 17.5 18.01C15.8 18.01 13.35 18.66 12 19.51V8C13.35 7.15 15.8 6.5 17.5 6.5C18.42 6.5 19.33 6.59 20.2 6.78C20.66 6.88 21 7.29 21 7.76V17.23Z" fill="#4A51E3"></path>
    <path d="M13.9799 11.01C13.6599 11.01 13.3699 10.81 13.2699 10.49C13.1399 10.1 13.3599 9.66998 13.7499 9.54998C15.2899 9.04998 17.2799 8.88998 19.1099 9.09998C19.5199 9.14998 19.8199 9.51998 19.7699 9.92998C19.7199 10.34 19.3499 10.64 18.9399 10.59C17.3199 10.4 15.5499 10.55 14.2099 10.98C14.1299 10.99 14.0499 11.01 13.9799 11.01Z" fill="#4A51E3" fill-opacity="0.64"></path>
    <path d="M13.9799 13.67C13.6599 13.67 13.3699 13.47 13.2699 13.15C13.1399 12.76 13.3599 12.33 13.7499 12.21C15.2799 11.71 17.2799 11.55 19.1099 11.76C19.5199 11.81 19.8199 12.18 19.7699 12.59C19.7199 13 19.3499 13.3 18.9399 13.25C17.3199 13.06 15.5499 13.21 14.2099 13.64C14.1299 13.66 14.0499 13.67 13.9799 13.67Z" fill="#4A51E3" fill-opacity="0.64"></path>
    <path d="M13.9799 16.33C13.6599 16.33 13.3699 16.13 13.2699 15.81C13.1399 15.42 13.3599 14.99 13.7499 14.87C15.2799 14.37 17.2799 14.21 19.1099 14.42C19.5199 14.47 19.8199 14.84 19.7699 15.25C19.7199 15.66 19.3499 15.95 18.9399 15.91C17.3199 15.72 15.5499 15.87 14.2099 16.3C14.1299 16.32 14.0499 16.33 13.9799 16.33Z" fill="#4A51E3" fill-opacity="0.64"></path>
  </symbol>
  <symbol fill="none" xmlns="http://www.w3.org/2000/svg" viewBox="0 0 24 24" id="groups_Init">
    <path d="M4 13C5.1 13 6 12.1 6 11C6 9.9 5.1 9 4 9C2.9 9 2 9.9 2 11C2 12.1 2.9 13 4 13ZM5.13 14.1C4.76 14.04 4.39 14 4 14C3.01 14 2.07 14.21 1.22 14.58C0.48 14.9 0 15.62 0 16.43V17C0 17.55 0.45 18 1 18H4.5V16.39C4.5 15.56 4.73 14.78 5.13 14.1ZM20 13C21.1 13 22 12.1 22 11C22 9.9 21.1 9 20 9C18.9 9 18 9.9 18 11C18 12.1 18.9 13 20 13ZM24 16.43C24 15.62 23.52 14.9 22.78 14.58C21.93 14.21 20.99 14 20 14C19.61 14 19.24 14.04 18.87 14.1C19.27 14.78 19.5 15.56 19.5 16.39V18H23C23.55 18 24 17.55 24 17V16.43Z" fill="#1F213A" fill-opacity="0.32"></path>
    <path d="M16.24 13.65C15.07 13.14 13.63 12.75 12 12.75C10.37 12.75 8.93 13.14 7.76 13.66C6.68 14.13 6 15.21 6 16.39V17C6 17.55 6.45 18 7 18H17C17.55 18 18 17.55 18 17V16.38C18 15.21 17.32 14.13 16.24 13.65Z" fill="#1C1D2A" fill-opacity="0.64"></path>
    <path d="M15 9C15 7.34 13.66 6 12 6C10.34 6 9 7.34 9 9C9 10.66 10.34 12 12 12C13.66 12 15 10.66 15 9Z" fill="#1C1D2A" fill-opacity="0.64"></path>
  </symbol>
  <symbol fill="none" xmlns="http://www.w3.org/2000/svg" viewBox="0 0 24 24" id="how_to_reg_Init">
    <path d="M12 20L11.14 19.14C9.96 17.96 9.97 16.04 11.16 14.88L12 14.06C11.61 14.02 11.32 14 11 14C8.33 14 3 15.34 3 18V20H12ZM11 12C13.21 12 15 10.21 15 8C15 5.79 13.21 4 11 4C8.79 4 7 5.79 7 8C7 10.21 8.79 12 11 12Z" fill="#1F213A" fill-opacity="0.32"></path>
    <path d="M16.18 19.78C15.79 20.17 15.15 20.17 14.76 19.78L12.69 17.69C12.31 17.3 12.31 16.68 12.69 16.3L12.7 16.29C13.09 15.9 13.72 15.9 14.1 16.29L15.47 17.66L19.9 13.2C20.29 12.81 20.92 12.81 21.31 13.2L21.32 13.21C21.7 13.6 21.7 14.22 21.32 14.6L16.18 19.78Z" fill="#1C1D2A" fill-opacity="0.64"></path>
  </symbol>
  <symbol fill="none" xmlns="http://www.w3.org/2000/svg" viewBox="0 0 25 24" id="business_center_Choose">
    <path d="M20.5 7H16.5C16.5 4.79 14.71 3 12.5 3C10.29 3 8.5 4.79 8.5 7H4.5C3.4 7 2.5 7.9 2.5 9V12C2.5 13.11 3.39 14 4.5 14H10.5V13C10.5 12.45 10.95 12 11.5 12H13.5C14.05 12 14.5 12.45 14.5 13V14H20.5C21.6 14 22.5 13.1 22.5 12V9C22.5 7.9 21.6 7 20.5 7ZM10.5 7C10.5 5.9 11.4 5 12.5 5C13.6 5 14.5 5.9 14.5 7H10.49H10.5Z" fill="#4A51E3" fill-opacity="0.64"></path>
    <path d="M11.5 16H13.5C14.05 16 14.5 15.55 14.5 15H21.5V19C21.5 20.1 20.6 21 19.5 21H5.51001C4.41001 21 3.51001 20.1 3.51001 19V15H10.5C10.5 15.55 10.95 16 11.5 16Z" fill="#4A51E3"></path>
  </symbol>
  <symbol fill="none" xmlns="http://www.w3.org/2000/svg" viewBox="0 0 24 24" id="business_center_Init">
    <path d="M20 7H16C16 4.79 14.21 3 12 3C9.79 3 8 4.79 8 7H4C2.9 7 2 7.9 2 9V12C2 13.11 2.89 14 4 14H10V13C10 12.45 10.45 12 11 12H13C13.55 12 14 12.45 14 13V14H20C21.1 14 22 13.1 22 12V9C22 7.9 21.1 7 20 7ZM10 7C10 5.9 10.9 5 12 5C13.1 5 14 5.9 14 7H9.99H10Z" fill="#1F213A" fill-opacity="0.32"></path>
    <path d="M11 16H13C13.55 16 14 15.55 14 15H21V19C21 20.1 20.1 21 19 21H5.01001C3.91001 21 3.01001 20.1 3.01001 19V15H10C10 15.55 10.45 16 11 16Z" fill="#1C1D2A" fill-opacity="0.64"></path>
  </symbol>
  <symbol fill="none" xmlns="http://www.w3.org/2000/svg" viewBox="0 0 25 24" id="Leaderboard_Choose">
    <path d="M7 21H3.5C2.95 21 2.5 20.55 2.5 20V10C2.5 9.45 2.95 9 3.5 9H7C7.55 9 8 9.45 8 10V20C8 20.55 7.55 21 7 21ZM21.5 11H18C17.45 11 17 11.45 17 12V20C17 20.55 17.45 21 18 21H21.5C22.05 21 22.5 20.55 22.5 20V12C22.5 11.45 22.05 11 21.5 11Z" fill="#4A51E3" fill-opacity="0.64"></path>
    <path d="M11 3H14.5C15.05 3 15.5 3.45 15.5 4V20C15.5 20.55 15.05 21 14.5 21H11C10.45 21 10 20.55 10 20V4C10 3.45 10.45 3 11 3Z" fill="#4A51E3"></path>
  </symbol>
  <symbol fill="none" xmlns="http://www.w3.org/2000/svg" viewBox="0 0 24 24" id="Leaderboard_Init">
    <path d="M6.5 21H3C2.45 21 2 20.55 2 20V10C2 9.45 2.45 9 3 9H6.5C7.05 9 7.5 9.45 7.5 10V20C7.5 20.55 7.05 21 6.5 21ZM21 11H17.5C16.95 11 16.5 11.45 16.5 12V20C16.5 20.55 16.95 21 17.5 21H21C21.55 21 22 20.55 22 20V12C22 11.45 21.55 11 21 11Z" fill="#1F213A" fill-opacity="0.32"></path>
    <path d="M10.5 3H14C14.55 3 15 3.45 15 4V20C15 20.55 14.55 21 14 21H10.5C9.95 21 9.5 20.55 9.5 20V4C9.5 3.45 9.95 3 10.5 3Z" fill="#1C1D2A" fill-opacity="0.64"></path>
  </symbol>
  <symbol fill="none" xmlns="http://www.w3.org/2000/svg" viewBox="0 0 25 24" id="Peoples_Choose">
    <path d="M16.5 11C18.16 11 19.49 9.66 19.49 8C19.49 6.34 18.16 5 16.5 5C14.84 5 13.5 6.34 13.5 8C13.5 9.66 14.84 11 16.5 11ZM16.5 13C16.21 13 15.88 13.02 15.53 13.05C15.55 13.06 15.56 13.08 15.57 13.09C16.71 13.92 17.5 15.03 17.5 16.5V18C17.5 18.35 17.43 18.69 17.32 19H22.5C23.05 19 23.5 18.55 23.5 18V16.5C23.5 14.17 18.83 13 16.5 13Z" fill="#4A51E3"></path>
    <path d="M8.5 11C10.16 11 11.49 9.66 11.49 8C11.49 6.34 10.16 5 8.5 5C6.84 5 5.5 6.34 5.5 8C5.5 9.66 6.84 11 8.5 11ZM8.5 13C6.17 13 1.5 14.17 1.5 16.5V18C1.5 18.55 1.95 19 2.5 19H14.5C15.05 19 15.5 18.55 15.5 18V16.5C15.5 14.17 10.83 13 8.5 13Z" fill="#4A51E3" fill-opacity="0.64"></path>
  </symbol>
  <symbol fill="none" xmlns="http://www.w3.org/2000/svg" viewBox="0 0 24 24" id="Peoples_Init">
    <path d="M16 11C17.66 11 18.99 9.66 18.99 8C18.99 6.34 17.66 5 16 5C14.34 5 13 6.34 13 8C13 9.66 14.34 11 16 11ZM16 13C15.71 13 15.38 13.02 15.03 13.05C15.05 13.06 15.06 13.08 15.07 13.09C16.21 13.92 17 15.03 17 16.5V18C17 18.35 16.93 18.69 16.82 19H22C22.55 19 23 18.55 23 18V16.5C23 14.17 18.33 13 16 13Z" fill="#1C1D2A" fill-opacity="0.64"></path>
    <path d="M8 11C9.66 11 10.99 9.66 10.99 8C10.99 6.34 9.66 5 8 5C6.34 5 5 6.34 5 8C5 9.66 6.34 11 8 11ZM8 13C5.67 13 1 14.17 1 16.5V18C1 18.55 1.45 19 2 19H14C14.55 19 15 18.55 15 18V16.5C15 14.17 10.33 13 8 13Z" fill="#1F213A" fill-opacity="0.32"></path>
  </symbol>
  <symbol fill="none" xmlns="http://www.w3.org/2000/svg" viewBox="0 0 24 24" id="School_Choose">
    <path d="M2.61003 8.12003L11.04 3.52003C11.64 3.20003 12.36 3.20003 12.96 3.52003L22.48 8.71003C22.8 8.89003 23 9.22003 23 9.59003V16C23 16.55 22.55 17 22 17C21.45 17 21 16.55 21 16V10.09L12.96 14.48C12.36 14.81 11.64 14.81 11.04 14.48L2.61003 9.88003C1.92003 9.50003 1.92003 8.50003 2.61003 8.12003Z" fill="#4A51E3" fill-opacity="0.64"></path>
    <path d="M5 13.1801V15.9901C5 16.7201 5.4 17.4001 6.04 17.7501L11.04 20.4801C11.64 20.8101 12.36 20.8101 12.96 20.4801L17.96 17.7501C18.6 17.4001 19 16.7201 19 15.9901V13.1801L12.96 16.4801C12.36 16.8101 11.64 16.8101 11.04 16.4801L5 13.1801Z" fill="#4A51E3"></path>
  </symbol>
  <symbol fill="none" xmlns="http://www.w3.org/2000/svg" viewBox="0 0 25 24" id="School_Init">
    <path d="M3.11003 8.12003L11.54 3.52003C12.14 3.20003 12.86 3.20003 13.46 3.52003L22.98 8.71003C23.3 8.89003 23.5 9.22003 23.5 9.59003V16C23.5 16.55 23.05 17 22.5 17C21.95 17 21.5 16.55 21.5 16V10.09L13.46 14.48C12.86 14.81 12.14 14.81 11.54 14.48L3.11003 9.88003C2.42003 9.50003 2.42003 8.50003 3.11003 8.12003Z" fill="#1F213A" fill-opacity="0.32"></path>
    <path d="M5.5 13.1801V15.9901C5.5 16.7201 5.9 17.4001 6.54 17.7501L11.54 20.4801C12.14 20.8101 12.86 20.8101 13.46 20.4801L18.46 17.7501C19.1 17.4001 19.5 16.7201 19.5 15.9901V13.1801L13.46 16.4801C12.86 16.8101 12.14 16.8101 11.54 16.4801L5.5 13.1801Z" fill="#1C1D2A" fill-opacity="0.64"></path>
  </symbol>
  <symbol fill="none" xmlns="http://www.w3.org/2000/svg" viewBox="0 0 24 24" id="Notifications_Init">
    <path d="M18.0001 16V11C18.0001 7.93 16.3601 5.36 13.5001 4.68V4C13.5001 3.17 12.8301 2.5 12.0001 2.5C11.1701 2.5 10.5001 3.17 10.5001 4V4.68C7.63005 5.36 6.00005 7.92 6.00005 11L6.00005 16L4.71005 17.29C4.08005 17.92 4.52005 19 5.41005 19H18.5801C19.4701 19 19.9201 17.92 19.2901 17.29L18.0001 16Z" fill="#1F213A" fill-opacity="0.32"></path>
    <path d="M12.0006 22C13.4789 22 14.7159 20.7098 15 19H9C9.28526 20.7098 10.5223 22 12.0006 22Z" fill="#1C1D2A" fill-opacity="0.64"></path>
  </symbol>
</svg>